<svg width="240" height="40" viewBox="0 0 240 40" fill="none" xmlns="http://www.w3.org/2000/svg">
<rect width="40" height="40" fill="#F8F8F8"/>
<rect x="50" width="40" height="40" fill="#BEAD8E"/>
<rect x="100" width="40" height="40" fill="#F8F8F8"/>
<rect x="150" width="40" height="40" fill="#F8F8F8"/>
<rect x="200" width="40" height="40" fill="#F8F8F8"/>
<g clip-path="url(#clip0_54_1183)">
<path fill-rule="evenodd" clip-rule="evenodd" d="M229.068 8C230.686 8 232 9.31391 232 10.9322V29.0678C232 30.6861 230.686 32 229.068 32H210.932C209.314 32 208 30.6861 208 29.0678V10.9322C208 9.31391 209.314 8 210.932 8H229.068V8ZM228.085 16.2327C227.891 15.5066 227.319 14.9348 226.593 14.7408C225.277 14.3881 220 14.3881 220 14.3881C220 14.3881 214.723 14.3881 213.407 14.7408C212.681 14.9348 212.109 15.5066 211.915 16.2327C211.563 17.5487 211.562 20.2945 211.562 20.2945C211.562 20.2945 211.563 23.0402 211.915 24.3561C212.109 25.0821 212.681 25.6541 213.407 25.8481C214.723 26.2006 220 26.2006 220 26.2006C220 26.2006 225.277 26.2006 226.593 25.8481C227.319 25.6541 227.891 25.0821 228.085 24.3561C228.438 23.0402 228.438 20.2945 228.438 20.2945C228.438 20.2945 228.438 17.5487 228.085 16.2327ZM218.312 22.8258V17.7632L222.697 20.2945L218.312 22.8258Z" fill="#777777"/>
</g>
<g clip-path="url(#clip1_54_1183)">
<path d="M170.648 18.6753V18.6387C170.64 18.651 170.632 18.6634 170.624 18.6753H170.648Z" fill="#777777"/>
<path d="M179.782 8H159.737C158.778 8 158 8.75952 158 9.6956V29.9747C158 30.9103 158.778 31.6698 159.737 31.6698H179.782C180.743 31.6698 181.521 30.9098 181.521 29.9747V9.6956C181.521 8.75904 180.742 8 179.782 8ZM165.129 27.8146H161.577V17.1266H165.129V27.8146ZM163.353 15.6666H163.329C162.138 15.6666 161.367 14.8457 161.367 13.8201C161.367 12.7718 162.162 11.9737 163.377 11.9737C164.592 11.9737 165.34 12.7718 165.363 13.8201C165.363 14.8457 164.592 15.6666 163.353 15.6666ZM177.94 27.8146H174.387V22.0954C174.387 20.6592 173.873 19.6788 172.588 19.6788C171.607 19.6788 171.022 20.3398 170.765 20.9785C170.671 21.2064 170.648 21.5253 170.648 21.8451V27.8142H167.096C167.096 27.8142 167.142 18.1279 167.096 17.1261H170.648V18.639C171.12 17.9109 171.965 16.8739 173.85 16.8739C176.188 16.8739 177.94 18.402 177.94 21.6852V27.8146H177.94Z" fill="#777777"/>
</g>
<g clip-path="url(#clip2_54_1183)">
<path fill-rule="evenodd" clip-rule="evenodd" d="M129.068 8C130.686 8 132 9.31391 132 10.9322V29.0678C132 30.6861 130.686 32 129.068 32H110.932C109.314 32 108 30.6861 108 29.0678V10.9322C108 9.31391 109.314 8 110.932 8H129.068V8ZM129.361 23.4995C129.404 22.8515 129.351 22.2328 129.201 21.6404C129.049 21.047 128.807 20.518 128.467 20.0556C128.126 19.5922 127.693 19.2221 127.165 18.9487C126.634 18.6718 126.016 18.536 125.309 18.536C124.669 18.536 124.091 18.6496 123.567 18.8755C123.043 19.1027 122.594 19.4134 122.214 19.8071C121.836 20.1985 121.547 20.6653 121.34 21.2064C121.136 21.7456 121.031 22.3288 121.031 22.9532C121.031 23.5989 121.132 24.1949 121.331 24.7332C121.532 25.2742 121.815 25.7349 122.179 26.1245C122.553 26.5129 122.996 26.8102 123.528 27.0228C124.059 27.2323 124.651 27.3388 125.309 27.3388C126.253 27.3388 127.063 27.1227 127.727 26.6891C128.399 26.2568 128.891 25.5392 129.216 24.534H127.196C127.118 24.7923 126.916 25.0413 126.583 25.2742C126.248 25.5077 125.848 25.6244 125.386 25.6244C124.742 25.6244 124.246 25.4558 123.902 25.1203C123.557 24.7847 123.335 24.1599 123.335 23.4995H129.361ZM116.214 27.1227C116.732 27.1227 117.236 27.0575 117.722 26.9287C118.214 26.7996 118.652 26.6007 119.034 26.3305C119.413 26.0624 119.721 25.715 119.947 25.2862C120.171 24.8624 120.283 24.3591 120.283 23.7742C120.283 23.0526 120.111 22.4375 119.761 21.9231C119.412 21.4123 118.886 21.0532 118.177 20.8491C118.698 20.6023 119.088 20.285 119.353 19.898C119.617 19.5102 119.749 19.0251 119.749 18.4446C119.749 17.908 119.66 17.454 119.485 17.0915C119.305 16.7235 119.053 16.4315 118.732 16.2118C118.405 15.9921 118.02 15.8319 117.567 15.7361C117.112 15.6371 116.614 15.5896 116.062 15.5896H110.625V27.1227H116.214ZM115.925 21.9826C116.471 21.9826 116.915 22.1082 117.249 22.3611C117.582 22.6172 117.749 23.0397 117.749 23.6339C117.749 23.9371 117.7 24.1883 117.598 24.3818C117.495 24.5761 117.354 24.7297 117.185 24.8415C117.014 24.9578 116.813 25.0368 116.586 25.0861C116.362 25.1362 116.125 25.1584 115.875 25.1584H113.164V21.9826H115.925ZM126.538 20.7324C126.265 20.4311 125.803 20.2677 125.24 20.2677C124.874 20.2677 124.571 20.3294 124.327 20.455C124.089 20.5793 123.895 20.7333 123.746 20.9152C123.598 21.0998 123.498 21.2951 123.439 21.5037C123.38 21.707 123.345 21.8911 123.335 22.054H127.066C127.011 21.4691 126.811 21.0364 126.538 20.7324ZM115.54 17.5543C115.765 17.5543 115.984 17.5703 116.193 17.6111C116.406 17.648 116.59 17.7154 116.752 17.8135C116.915 17.908 117.045 18.0425 117.144 18.2147C117.238 18.3869 117.285 18.6088 117.285 18.8768C117.285 19.3606 117.144 19.7125 116.852 19.926C116.556 20.1425 116.184 20.2491 115.734 20.2491H113.164V17.5543H115.54ZM127.54 17.5015V16.3636H122.865V17.5015H127.54Z" fill="#777777"/>
</g>
<g clip-path="url(#clip3_54_1183)">
<path fill-rule="evenodd" clip-rule="evenodd" d="M29.0678 8C30.6861 8 32 9.31391 32 10.9322V29.0678C32 30.6861 30.6861 32 29.0678 32H24.0771V22.9571H27.199L27.793 19.0843H24.0771V16.571C24.0771 15.5114 24.5961 14.4786 26.2605 14.4786H27.95V11.1815C27.95 11.1815 26.4167 10.9198 24.9508 10.9198C21.8905 10.9198 19.8902 12.7746 19.8902 16.1325V19.0843H16.4884V22.9571H19.8902V32H10.9322C9.31391 32 8 30.6861 8 29.0678V10.9322C8 9.31391 9.31386 8 10.9322 8H29.0678V8Z" fill="#777777"/>
</g>
<g clip-path="url(#clip4_54_1183)">
<path d="M79 32H61C59.344 32 58 30.656 58 29V11C58 9.344 59.344 8 61 8H79C80.656 8 82 9.344 82 11V29C82 30.656 80.656 32 79 32ZM67.216 26.096C72.874 26.096 75.97 21.404 75.97 17.342C75.97 17.21 75.97 17.078 75.964 16.946C76.564 16.514 77.086 15.968 77.5 15.35C76.948 15.596 76.354 15.758 75.73 15.836C76.366 15.458 76.852 14.852 77.086 14.132C76.492 14.486 75.832 14.738 75.13 14.876C74.566 14.276 73.768 13.904 72.886 13.904C71.188 13.904 69.808 15.284 69.808 16.982C69.808 17.222 69.838 17.456 69.886 17.684C67.33 17.558 65.062 16.328 63.544 14.468C63.28 14.924 63.13 15.452 63.13 16.016C63.13 17.084 63.676 18.026 64.498 18.578C63.994 18.56 63.52 18.422 63.106 18.194V18.236C63.106 19.724 64.168 20.972 65.572 21.254C65.314 21.326 65.044 21.362 64.762 21.362C64.564 21.362 64.372 21.344 64.186 21.308C64.576 22.532 65.716 23.42 67.06 23.444C66.004 24.272 64.678 24.764 63.238 24.764C62.992 24.764 62.746 24.752 62.506 24.722C63.862 25.586 65.482 26.096 67.216 26.096Z" fill="white"/>
</g>
<defs>
<clipPath id="clip0_54_1183">
<rect width="24" height="24" fill="white" transform="translate(208 8)"/>
</clipPath>
<clipPath id="clip1_54_1183">
<rect width="24" height="24" fill="white" transform="translate(158 8)"/>
</clipPath>
<clipPath id="clip2_54_1183">
<rect width="24" height="24" fill="white" transform="translate(108 8)"/>
</clipPath>
<clipPath id="clip3_54_1183">
<rect width="24" height="24" fill="white" transform="translate(8 8)"/>
</clipPath>
<clipPath id="clip4_54_1183">
<rect width="24" height="24" fill="white" transform="translate(58 8)"/>
</clipPath>
</defs>
</svg>
