<svg width="264" height="24" viewBox="0 0 264 24" fill="none" xmlns="http://www.w3.org/2000/svg">
<path d="M7.90909 12.5455C8.39455 12.5455 8.86912 12.4015 9.27276 12.1318C9.67641 11.8621 9.99102 11.4787 10.1768 11.0302C10.3626 10.5817 10.4112 10.0882 10.3165 9.61205C10.2218 9.13592 9.98799 8.69856 9.64472 8.35528C9.30144 8.01201 8.86408 7.77824 8.38795 7.68353C7.91181 7.58882 7.41829 7.63743 6.96978 7.82321C6.52127 8.00898 6.13792 8.32359 5.86821 8.72724C5.5985 9.13088 5.45455 9.60545 5.45455 10.0909C5.45455 10.7419 5.71315 11.3662 6.17347 11.8265C6.63378 12.2869 7.2581 12.5455 7.90909 12.5455ZM7.90909 9.27273C8.07091 9.27273 8.2291 9.32071 8.36365 9.41062C8.4982 9.50052 8.60307 9.6283 8.66499 9.7778C8.72692 9.92731 8.74312 10.0918 8.71155 10.2505C8.67998 10.4092 8.60206 10.555 8.48763 10.6695C8.37321 10.7839 8.22742 10.8618 8.06871 10.8934C7.91 10.9249 7.74549 10.9087 7.59599 10.8468C7.44648 10.7849 7.3187 10.68 7.2288 10.5455C7.13889 10.4109 7.09091 10.2527 7.09091 10.0909C7.09091 9.87391 7.17711 9.66581 7.33055 9.51237C7.48399 9.35893 7.6921 9.27273 7.90909 9.27273ZM18.5455 7.63636H12C11.783 7.63636 11.5749 7.72256 11.4215 7.876C11.268 8.02944 11.1818 8.23755 11.1818 8.45455V13.3636H4.63636V6.81818C4.63636 6.60119 4.55016 6.39308 4.39672 6.23964C4.24328 6.0862 4.03518 6 3.81818 6C3.60119 6 3.39308 6.0862 3.23964 6.23964C3.0862 6.39308 3 6.60119 3 6.81818V17.4545C3 17.6715 3.0862 17.8797 3.23964 18.0331C3.39308 18.1865 3.60119 18.2727 3.81818 18.2727C4.03518 18.2727 4.24328 18.1865 4.39672 18.0331C4.55016 17.8797 4.63636 17.6715 4.63636 17.4545V15H19.3636V17.4545C19.3636 17.6715 19.4498 17.8797 19.6033 18.0331C19.7567 18.1865 19.9648 18.2727 20.1818 18.2727C20.3988 18.2727 20.6069 18.1865 20.7604 18.0331C20.9138 17.8797 21 17.6715 21 17.4545V10.0909C21 9.43992 20.7414 8.8156 20.2811 8.35528C19.8208 7.89497 19.1964 7.63636 18.5455 7.63636ZM19.3636 13.3636H12.8182V9.27273H18.5455C18.7625 9.27273 18.9706 9.35893 19.124 9.51237C19.2774 9.66581 19.3636 9.87391 19.3636 10.0909V13.3636Z" fill="#222222"/>
<path d="M51.925 13.9812C50.8647 13.9812 49.8044 14.4178 49.1184 15.2286C48.4947 15.977 47.372 14.9791 47.9957 14.2307C48.9936 13.108 50.4281 12.4843 51.925 12.4843C53.4219 12.4843 54.8564 13.108 55.8543 14.2307C56.478 14.9791 55.3553 15.977 54.7316 15.2286C54.0456 14.4178 52.9853 13.9812 51.925 13.9812ZM51.925 19.2202C51.1142 19.2202 50.4281 18.5342 50.4281 17.7234C50.4281 16.9126 51.1142 16.2265 51.925 16.2265C52.7358 16.2265 53.4219 16.9126 53.4219 17.7234C53.4219 18.5342 52.7358 19.2202 51.925 19.2202ZM51.925 10.239C49.9292 10.239 48.1205 10.9251 46.686 12.3596C46.0623 12.9833 44.8773 12.0477 45.6257 11.2993C47.3097 9.61534 49.555 8.74217 51.925 8.74217C54.295 8.74217 56.5403 9.61534 58.2243 11.2993C58.9727 12.0477 57.7877 12.9833 57.164 12.3596C55.7295 10.9251 53.9208 10.239 51.925 10.239ZM51.925 6.49687C49.056 6.49687 46.3741 7.55715 44.3159 9.4906C43.5675 10.1767 42.5072 9.11638 43.2556 8.43032C45.6881 6.18502 48.6818 5 51.925 5C55.1682 5 58.1619 6.18502 60.5944 8.43032C61.3428 9.11638 60.2825 10.1767 59.5341 9.4906C57.4759 7.55715 54.794 6.49687 51.925 6.49687Z" fill="#222222"/>
<g clip-path="url(#clip0_21_717)">
<path fill-rule="evenodd" clip-rule="evenodd" d="M85.6345 9.43273L85.9 8.63636H85.4545C85.0527 8.63636 84.7273 8.31091 84.7273 7.90909C84.7273 7.50727 85.0527 7.18182 85.4545 7.18182C85.9 7.18182 86.3847 7.18182 86.3847 7.18182C86.3847 7.18182 86.7316 6.1411 86.9465 5.49746C87.0455 5.20037 87.3233 5 87.6364 5C89.3335 5 94.6665 5 96.3636 5C96.6767 5 96.9545 5.20037 97.0535 5.49746L97.6153 7.18182H98.5455C98.9473 7.18182 99.2727 7.50727 99.2727 7.90909C99.2727 8.31091 98.9473 8.63636 98.5455 8.63636H98.1L98.3655 9.43273C99.3055 9.67564 100 10.5295 100 11.5455V18.0909C100 18.4927 99.6745 18.8182 99.2727 18.8182C98.8284 18.8182 98.2625 18.8182 97.8182 18.8182C97.4164 18.8182 97.0909 18.4927 97.0909 18.0909V17.3636H86.9091V18.0909C86.9091 18.4927 86.5836 18.8182 86.1818 18.8182C85.7375 18.8182 85.1716 18.8182 84.7273 18.8182C84.3255 18.8182 84 18.4927 84 18.0909C84 16.7076 84 13.648 84 11.5455C84 10.5295 84.6945 9.67564 85.6345 9.43273ZM86.9091 12.2727C87.3109 12.2727 87.6364 12.5982 87.6364 13C87.6364 13.4018 87.3109 13.7273 86.9091 13.7273C86.2745 13.7273 85.4545 13.7273 85.4545 13.7273V15.9091H87.9142C87.9142 15.9091 88.7687 14.2004 89.1676 13.4022C89.2909 13.1556 89.5425 13 89.8182 13C90.8124 13 93.1876 13 94.1818 13C94.4575 13 94.7091 13.1556 94.8324 13.4022C95.2313 14.2004 96.0858 15.9091 96.0858 15.9091H98.5455V13.7273H97.0909C96.6891 13.7273 96.3636 13.4018 96.3636 13C96.3636 12.5982 96.6891 12.2727 97.0909 12.2727C97.7255 12.2727 98.5455 12.2727 98.5455 12.2727V11.5455C98.5455 11.1436 98.22 10.8182 97.8182 10.8182C95.5265 10.8182 88.4735 10.8182 86.1818 10.8182C85.78 10.8182 85.4545 11.1436 85.4545 11.5455V12.2727H86.9091ZM93.7324 14.4545H90.2676L89.5404 15.9091H94.4596L93.7324 14.4545ZM88.1607 6.45455L87.1909 9.36364H96.8091L95.8393 6.45455H88.1607Z" fill="#222222"/>
</g>
<path d="M139.248 15.5541L137.112 14.3293L138.969 13.5137C139.227 13.4001 139.346 13.0974 139.233 12.8379C139.122 12.5869 138.81 12.4637 138.557 12.5743L136.006 13.695L133.031 11.9891L135.992 10.2803L138.572 11.4038C138.834 11.5166 139.137 11.3874 139.245 11.1375C139.357 10.878 139.238 10.5758 138.979 10.4636L137.095 9.64313L139.242 8.40375C139.36 8.33532 139.445 8.22469 139.48 8.09232C139.516 7.95994 139.498 7.82194 139.429 7.70344C139.292 7.46869 138.965 7.37944 138.729 7.51575L136.596 8.74669L136.825 6.73182C136.84 6.59513 136.802 6.46069 136.716 6.35307C136.631 6.24619 136.509 6.17907 136.374 6.16425C136.087 6.13032 135.836 6.33769 135.807 6.61725L135.517 9.38494L132.563 11.1038V7.69069L134.799 6.01969C134.904 5.94207 134.974 5.82732 134.993 5.69644C135.014 5.55975 134.978 5.4165 134.894 5.30325C134.731 5.08182 134.419 5.031 134.195 5.19582L132.563 6.41325V3.93919C132.563 3.63732 132.265 3.42694 131.999 3.42694C131.733 3.42694 131.438 3.63732 131.438 3.93919V6.39825L129.83 5.19563C129.61 5.03232 129.29 5.08182 129.126 5.30307C129.04 5.41857 129.003 5.56407 129.024 5.70188C129.044 5.83069 129.112 5.94338 129.215 6.01857L131.438 7.67494V11.1021L128.527 9.42094L128.218 6.65138C128.187 6.393 127.971 6.19819 127.716 6.19819C127.696 6.19819 127.675 6.19932 127.655 6.20194C127.378 6.23363 127.177 6.48769 127.207 6.77063L127.444 8.78588L125.261 7.53394C125.184 7.48988 125.096 7.46644 125.007 7.46644C124.824 7.46644 124.654 7.56507 124.563 7.72407C124.423 7.96688 124.508 8.28038 124.752 8.42363L126.949 9.68325L125.068 10.5094C124.942 10.5645 124.845 10.665 124.796 10.7923C124.746 10.9198 124.75 11.0591 124.804 11.1838C124.912 11.4328 125.215 11.5599 125.479 11.4486L128.055 10.3176L130.975 11.9919L128.049 13.6815L125.495 12.5691C125.241 12.459 124.93 12.5826 124.821 12.8344C124.708 13.0929 124.827 13.3958 125.086 13.5098L126.945 14.319L124.765 15.5771C124.522 15.7196 124.439 16.0337 124.579 16.2773C124.67 16.4351 124.841 16.5332 125.023 16.5332C125.114 16.5332 125.203 16.509 125.279 16.4646L127.473 15.198L127.24 17.2421C127.225 17.3784 127.264 17.5123 127.35 17.6196C127.435 17.7263 127.557 17.7936 127.688 17.8078C127.708 17.8106 127.73 17.8112 127.751 17.8112C128.012 17.8112 128.23 17.6158 128.26 17.3552L128.553 14.5599L131.438 12.8824V16.2874L129.457 17.9443C129.245 18.1215 129.221 18.4449 129.402 18.663C129.497 18.7806 129.647 18.8507 129.804 18.8507C129.945 18.8507 130.04 18.7899 130.111 18.7335L131.438 17.6211V20.0608C131.438 20.3627 131.733 20.5731 131.999 20.5731C132.265 20.5731 132.563 20.3627 132.563 20.0608V17.6046L133.909 18.7358C134.134 18.9163 134.437 18.8736 134.609 18.6653C134.695 18.5616 134.741 18.4328 134.737 18.3021C134.733 18.1601 134.672 18.0328 134.565 17.9438L132.563 16.2705V12.8743L135.508 14.5761L135.82 17.3717C135.851 17.6295 136.067 17.8239 136.323 17.8239C136.347 17.8239 136.362 17.8226 136.378 17.8202C136.513 17.8054 136.634 17.7383 136.719 17.6318C136.805 17.5241 136.844 17.3893 136.828 17.2523L136.59 15.2109L138.739 16.443C138.816 16.4874 138.904 16.5109 138.993 16.5109C139.177 16.5109 139.347 16.4121 139.437 16.2531C139.577 16.0093 139.493 15.6956 139.248 15.5541Z" fill="#222222"/>
<path d="M169.076 10.7623L175.06 14.2169M170.787 6.76358L168.693 5.55448C168.445 5.41139 168.128 5.49631 167.985 5.74415L164.185 12.3259C164.042 12.5738 164.127 12.8907 164.374 13.0338L166.469 14.2429C166.716 14.386 167.033 14.3011 167.176 14.0532L170.976 7.47142C171.12 7.22358 171.035 6.90667 170.787 6.76358ZM179.762 11.9454L177.668 10.7363C177.42 10.5932 177.103 10.6781 176.96 10.926L173.16 17.5078C173.017 17.7556 173.102 18.0725 173.35 18.2156L175.444 19.4247C175.692 19.5678 176.008 19.4829 176.152 19.235L179.952 12.6532C180.095 12.4054 180.01 12.0885 179.762 11.9454ZM162.805 9.53463L164.877 5.94456C165.02 5.69672 165.337 5.6118 165.585 5.75489L166.931 6.53217C167.179 6.67526 167.264 6.99217 167.121 7.24002L165.048 10.8301C164.905 11.0779 164.588 11.1628 164.34 11.0198L162.994 10.2425C162.746 10.0994 162.661 9.78249 162.805 9.53463ZM179.259 19.0346L181.332 15.4446C181.475 15.1967 181.39 14.8798 181.142 14.7367L179.796 13.9594C179.548 13.8163 179.231 13.9013 179.088 14.1491L177.015 17.7392C176.872 17.987 176.957 18.3039 177.205 18.447L178.551 19.2243C178.799 19.3674 179.116 19.2825 179.259 19.0346Z" stroke="#222222" stroke-width="1.25" stroke-linecap="round" stroke-linejoin="round"/>
<g clip-path="url(#clip1_21_717)">
<path d="M208 13V17M216 5V5.5C216 6.03043 216.211 6.53914 216.586 6.91421C216.961 7.28929 217.47 7.5 218 7.5C218.53 7.5 219.039 7.71071 219.414 8.08579C219.789 8.46086 220 8.96957 220 9.5V10M203 3L221 21M217 17H204C203.735 17 203.48 16.8946 203.293 16.7071C203.105 16.5196 203 16.2652 203 16V14C203 13.7348 203.105 13.4804 203.293 13.2929C203.48 13.1054 203.735 13 204 13H213M217 13H220C220.265 13 220.52 13.1054 220.707 13.2929C220.895 13.4804 221 13.7348 221 14V16C221 16.28 220.885 16.533 220.7 16.714L217 13Z" stroke="#222222" stroke-width="1.4" stroke-linecap="round" stroke-linejoin="round"/>
</g>
<path d="M252.54 14.81L245.83 7.49H259.25L252.54 14.81ZM252.54 14.81C252.54 15.42 252.54 20.3 252.54 20.3M250.1 20.3H254.98M248.27 9.93H256.81M247.66 4.44L251.93 9.93M244 6.27L250.71 2H245.83L244 6.27Z" stroke="#222222" stroke-width="1.4" stroke-miterlimit="10" stroke-linecap="round" stroke-linejoin="round"/>
<defs>
<clipPath id="clip0_21_717">
<rect width="24" height="24" fill="white" transform="translate(80)"/>
</clipPath>
<clipPath id="clip1_21_717">
<rect width="24" height="24" fill="white" transform="translate(200)"/>
</clipPath>
</defs>
</svg>
